<?xml version="1.0" encoding="UTF-8"?>
<svg id="Layer_2" data-name="Layer 2" xmlns="http://www.w3.org/2000/svg" xmlns:xlink="http://www.w3.org/1999/xlink" viewBox="0 0 590.61 590.6">
  <defs>
    <style>
      .cls-1 {
        fill: url(#radial-gradient);
      }

      .cls-2 {
        fill: url(#radial-gradient-2);
      }
    </style>
    <radialGradient id="radial-gradient" cx="295.3" cy="295.3" fx="214.97" fy="596.43" r="311.67" gradientUnits="userSpaceOnUse">
      <stop offset=".01" stop-color="#9548ec"/>
      <stop offset=".27" stop-color="#9045ed"/>
      <stop offset=".56" stop-color="#823df2"/>
      <stop offset=".83" stop-color="#6f32f9"/>
    </radialGradient>
    <radialGradient id="radial-gradient-2" cx="295.3" cy="351.62" fx="295.3" fy="351.62" r="312.51" gradientUnits="userSpaceOnUse">
      <stop offset=".01" stop-color="#f4f2ea"/>
      <stop offset=".4" stop-color="#efede7"/>
      <stop offset=".83" stop-color="#e2e2e0"/>
    </radialGradient>
  </defs>
  <g id="Layer_1-2" data-name="Layer 1">
    <g>
      <path class="cls-1" d="M590.61,295.3c0,163.09-132.22,295.3-295.31,295.3-14.97,0-29.68-1.11-44.04-3.26-44.78-6.7-86.28-23.45-122.11-47.88C51.19,486.3,0,396.78,0,295.3,0,132.21,132.21,0,295.3,0s295.31,132.21,295.31,295.3Z"/>
      <path class="cls-2" d="M129.15,251.31c113.81-5.86,329.91,42.55,332.51-133.51-114,5.7-329.03-42.16-332.51,133.51ZM460.47,416.58c-23.83-191.77-340.87-137.35-331.32,50.79v72.09c35.83,24.43,77.33,41.18,122.11,47.88v-146.47c0-5.64,4.57-10.21,10.21-10.21h186.57c7.53,0,13.36-6.6,12.43-14.08Z"/>
    </g>
  </g>
</svg>